#!OML:ASF I:\golf\golf\golf 2\Subject 1\2002-09-07\Subject1.ASF
:FULLY-SPECIFIED
:DEGREES
247
root -6.59114 17.7424 1.96154 -3.03551 50.6895 -17.1814
lowerback 1.20235 -7.34218 -11.5061
upperback 3.17185 -9.63655 -0.900605
thorax 4.4204 -5.11826 4.97831
lowerneck -8.34796 17.7497 4.06841
upperneck 23.918 28.7904 -14.1527
head 12.0596 12.0574 -1.53185
rclavicle 8.38871e-014 1.59028e-014
rhumerus 0.0797873 -11.4217 -84.7859
rradius 97.1374
rwrist -34.7039
rhand -58.3683 31.1795
rfingers 7.12502
rthumb -30.5972 3.70207
lclavicle 8.38871e-014 1.59028e-014
lhumerus 86.2958 -57.4153 42.1652
lradius 28.5992
lwrist -6.2073
lhand -15.373 4.90982
lfingers 7.12502
lthumb -169.195 -145.388
rfemur -31.1201 13.9291 23.5467
rtibia 29.568
rfoot -8.23233 14.3704
rtoes 12.076
lfemur -6.42725 15.1518 5.7187
ltibia 30.2416
lfoot -6.65415 19.8207
ltoes -29.7932
248
root -6.58584 17.748 1.99836 -2.83603 50.3263 -16.9026
lowerback 1.22729 -7.46319 -11.6219
upperback 3.05681 -9.8044 -0.981326
thorax 4.31949 -5.19301 4.95356
lowerneck -8.00162 17.8855 4.12633
upperneck 23.2949 28.879 -14.402
head 11.8128 12.149 -1.64975
rclavicle -3.1408e-014 -4.13472e-014
rhumerus 0.90832 -11.7552 -84.2986
rradius 97.7907
rwrist -33.4246
rhand -58.2591 34.6001
rfingers 7.12502
rthumb -30.493 7.10323
lclavicle -3.1408e-014 -4.13472e-014
lhumerus 87.5511 -56.798 41.7586
lradius 28.8172
lwrist -6.31487
lhand -15.4656 4.43208
lfingers 7.12502
lthumb -169.284 -145.861
rfemur -31.0527 14.1855 23.5413
rtibia 29.682
rfoot -8.33183 14.493
rtoes 12.224
lfemur -6.12892 15.1804 5.68867
ltibia 30.134
lfoot -5.97969 20.0745
ltoes -30.2287
249
root -6.58424 17.7449 2.03492 -2.67675 50.0141 -16.6358
lowerback 1.34507 -7.58673 -11.7913
upperback 2.95095 -9.98703 -1.06234
thorax 4.18883 -5.27549 4.96773
lowerneck -7.89961 18.0327 4.18595
upperneck 22.9193 29.0079 -14.4998
head 11.6878 12.2359 -1.6812
rclavicle -5.84427e-014 -1.90833e-014
rhumerus 1.77484 -11.9893 -83.8364
rradius 98.4993
rwrist -32.2722
rhand -57.994 37.1782
rfingers 7.12502
rthumb -30.2402 9.63471
lclavicle -5.84427e-014 -1.90833e-014
lhumerus 88.4658 -56.2374 41.7265
lradius 29.0748
lwrist -6.59465
lhand -15.5691 4.19788
lfingers 7.12502
lthumb -169.384 -146.09
rfemur -30.9707 14.4222 23.5522
rtibia 29.7997
rfoot -8.28267 14.5789
rtoes 13.3681
lfemur -5.69168 14.9361 5.7229
ltibia 30.0192
lfoot -6.07505 20.0708
ltoes -29.2004
250
root -6.5819 17.7422 2.0693 -2.43781 49.7392 -16.3432
lowerback 1.41436 -7.72303 -11.8769
upperback 2.86165 -10.1795 -1.15415
thorax 4.08765 -5.36182 4.91822
lowerneck -8.08816 18.198 3.99432
upperneck 22.6845 29.173 -14.3858
head 11.5975 12.311 -1.58105
rclavicle 2.62396e-014 0
rhumerus 2.73134 -12.2541 -83.3943
rradius 99.3212
rwrist -31.3943
rhand -57.5582 38.6926
rfingers 7.12502
rthumb -29.8243 11.0737
lclavicle 2.62396e-014 0
lhumerus 89.7159 -55.5773 41.2649
lradius 29.3292
lwrist -6.63674
lhand -16.1134 3.8365
lfingers 7.12502
lthumb -169.909 -146.425
rfemur -30.9742 14.4988 23.5448
rtibia 29.9414
rfoot -8.30131 14.8456
rtoes 13.5073
lfemur -5.32664 14.7504 5.69398
ltibia 29.8796
lfoot -6.16825 20.0496
ltoes -29.369
251
root -6.57857 17.7405 2.10199 -2.23996 49.4331 -16.1699
lowerback 1.42168 -7.82427 -11.8077
upperback 2.75948 -10.3199 -1.23863
thorax 3.97019 -5.41743 4.79433
lowerneck -8.24271 18.3491 3.73082
upperneck 22.4296 29.2922 -14.1793
head 11.4584 12.3766 -1.45959
rclavicle 3.61788e-014 -1.59028e-014
rhumerus 3.70902 -12.5932 -82.8912
rradius 100.102
rwrist -30.2042
rhand -57.9423 39.2773
rfingers 7.12502
rthumb -30.1908 11.7247
lclavicle 3.61788e-014 -1.59028e-014
lhumerus 91.0746 -54.9894 40.7544
lradius 29.5704
lwrist -6.79722
lhand -16.7493 3.81303
lfingers 7.12502
lthumb -170.523 -146.42
rfemur -31.0186 14.6179 23.5976
rtibia 30.0558
rfoot -8.48576 15.0583
rtoes 12.2491
lfemur -5.07776 14.7533 5.69857
ltibia 29.7653
lfoot -5.85525 20.1742
ltoes -30.2677
252
root -6.57339 17.74 2.13422 -2.07339 49.1274 -16.0248
lowerback 1.41588 -7.90763 -11.7282
upperback 2.63126 -10.4366 -1.33054
thorax 3.82413 -5.45879 4.66107
lowerneck -8.19351 18.5018 3.67031
upperneck 22.1431 29.4109 -14.0845
head 11.3224 12.4618 -1.41633
rclavicle -8.66701e-014 -3.81667e-014
rhumerus 4.60401 -12.8645 -82.3025
rradius 100.664
rwrist -28.4689
rhand -58.8947 40.2212
rfingers 7.12502
rthumb -31.099 12.8386
lclavicle -8.66701e-014 -3.81667e-014
lhumerus 92.2383 -54.5564 40.4899
lradius 29.8515
lwrist -7.12903
lhand -17.3101 4.27721
lfingers 7.12502
lthumb -171.064 -145.932
rfemur -31.013 14.7272 23.6748
rtibia 30.1116
rfoot -8.54381 15.2327
rtoes 12.0866
lfemur -4.84189 14.6815 5.73087
ltibia 29.7244
lfoot -6.06194 20.2336
ltoes -29.4386
253
root -6.56737 17.7488 2.16607 -1.89953 48.8721 -15.9071
lowerback 1.43451 -8.02882 -11.6228
upperback 2.48174 -10.6103 -1.38736
thorax 3.65289 -5.52736 4.55174
lowerneck -8.13429 18.6492 3.6702
upperneck 21.8813 29.5668 -14.1316
head 11.2359 12.5507 -1.41584
rclavicle -6.40087e-014 3.18055e-014
rhumerus 5.47376 -13.0238 -81.6819
rradius 101.19
rwrist -26.6718
rhand -59.4075 41.0246
rfingers 7.12502
rthumb -31.5876 13.7368
lclavicle -6.40087e-014 3.18055e-014
lhumerus 93.0768 -54.0902 40.567
lradius 30.1114
lwrist -7.47972
lhand -17.7204 4.2992
lfingers 7.12502
lthumb -171.46 -145.894
rfemur -31.0244 14.7644 23.7607
rtibia 30.1599
rfoot -8.48777 15.4646
rtoes 12.8851
lfemur -4.76047 14.6708 5.74414
ltibia 29.7062
lfoot -6.04497 20.3969
ltoes -28.9159
254
root -6.5645 17.7552 2.19776 -1.72019 48.6387 -15.817
lowerback 1.48325 -8.15607 -11.531
upperback 2.31748 -10.7978 -1.42429
thorax 3.45739 -5.60245 4.47546
lowerneck -8.04753 18.7649 3.70506
upperneck 21.5845 29.6875 -14.2611
head 11.1493 12.6228 -1.45386
rclavicle 3.53837e-014 -9.54166e-015
rhumerus 6.48863 -13.4172 -81.2287
rradius 101.949
rwrist -25.2306
rhand -59.2726 41.0686
rfingers 7.12502
rthumb -31.4591 13.7557
lclavicle 3.53837e-014 -9.54166e-015
lhumerus 93.8656 -53.6041 40.6962
lradius 30.3251
lwrist -7.74512
lhand -18.0527 3.93375
lfingers 7.12502
lthumb -171.78 -146.246
rfemur -31.0939 14.8358 23.8371
rtibia 30.2324
rfoot -8.48311 15.694
rtoes 13.2589
lfemur -4.72963 14.8018 5.75156
ltibia 29.6454
lfoot -5.549 20.6685
ltoes -29.3061
255
root -6.56378 17.7481 2.22758 -1.50144 48.4231 -15.6306
lowerback 1.53225 -8.27973 -11.5429
upperback 2.17741 -10.9771 -1.48344
thorax 3.30147 -5.67755 4.42817
lowerneck -7.94146 18.8885 3.69593
upperneck 21.1857 29.79 -14.37
head 11.0079 12.6968 -1.49005
rclavicle 4.6118e-014 6.04305e-014
rhumerus 7.67762 -13.992 -80.9515
rradius 102.771
rwrist -24.0769
rhand -58.8172 41.2951
rfingers 7.12502
rthumb -31.0251 13.8984
lclavicle 4.6118e-014 6.04305e-014
lhumerus 95.0036 -53.0369 40.3524
lradius 30.6029
lwrist -7.52995
lhand -18.6199 3.68553
lfingers 7.12502
lthumb -172.328 -146.474
rfemur -31.1527 14.9242 23.8314
rtibia 30.3005
rfoot -8.54396 15.8776
rtoes 13.0395
lfemur -4.52803 14.7349 5.71878
ltibia 29.5633
lfoot -5.7813 20.7311
ltoes -28.4085
256
root -6.56158 17.7407 2.25782 -1.40051 48.2228 -15.5287
lowerback 1.60676 -8.41961 -11.5085
upperback 2.07173 -11.1807 -1.50343
thorax 3.1705 -5.76758 4.39602
lowerneck -7.9348 19.0146 3.49272
upperneck 20.7413 29.8862 -14.402
head 10.8233 12.7617 -1.47733
rclavicle 8.94531e-014 4.13472e-014
rhumerus 8.54796 -14.2087 -80.4242
rradius 103.229
rwrist -22.8096
rhand -58.9667 42.0307
rfingers 7.12502
rthumb -31.1676 14.6613
lclavicle 8.94531e-014 4.13472e-014
lhumerus 95.8254 -52.4656 40.3455
lradius 30.9532
lwrist -7.33239
lhand -19.1924 3.57781
lfingers 7.12502
lthumb -172.881 -146.562
rfemur -31.1424 15.0778 23.8752
rtibia 30.3593
rfoot -8.57717 15.9683
rtoes 13.1109
lfemur -4.3135 14.5935 5.77043
ltibia 29.486
lfoot -5.8385 20.7774
ltoes -28.1989
257
root -6.55769 17.7463 2.29056 -1.30083 48.058 -15.4239
lowerback 1.6858 -8.5384 -11.4503
upperback 1.97303 -11.3555 -1.54642
thorax 3.02986 -5.84217 4.33203
lowerneck -7.96068 19.1121 3.33041
upperneck 20.3465 29.9374 -14.3918
head 10.6578 12.8077 -1.45976
rclavicle 1.66979e-014 -3.18055e-015
rhumerus 9.08947 -14.1723 -79.4687
rradius 103.509
rwrist -21.4811
rhand -59.6613 43.4843
rfingers 7.12502
rthumb -31.8294 16.2442
lclavicle 1.66979e-014 -3.18055e-015
lhumerus 96.4624 -52.0765 40.7082
lradius 31.1618
lwrist -7.50918
lhand -19.7794 3.45755
lfingers 7.12502
lthumb -173.447 -146.664
rfemur -31.1037 15.3104 23.8903
rtibia 30.3986
rfoot -8.55245 15.9896
rtoes 13.7485
lfemur -4.26736 14.6035 5.78694
ltibia 29.4286
lfoot -4.98596 21.0567
ltoes -29.7997
